<svg xmlns="http://www.w3.org/2000/svg" width="212.2" height="212.991" viewBox="0 0 212.2 212.991">
  <g id="Group_10" data-name="Group 10" transform="translate(-186 -1622.8)">
    <g id="noun_Headset_326922" transform="translate(186 1622.8)">
      <g id="Group_4" data-name="Group 4" transform="translate(0)">
        <g id="Group_3" data-name="Group 3">
          <path id="Path_24" data-name="Path 24" d="M192.737,64.293h-3.548C184.7,28.219,148.072,0,103.7,0,59.268,0,22.6,28.292,18.2,64.425A19.464,19.464,0,0,0,.032,83.788v51.469a19.514,19.514,0,0,0,19.488,19.5H41.846a19.5,19.5,0,0,0,19.482-19.5V83.788a19.514,19.514,0,0,0-19.488-19.5H31.7c4.578-28.718,35.083-51,72-51s67.429,22.286,72.007,51h-5.282a19.52,19.52,0,0,0-19.5,19.5v51.469a19.52,19.52,0,0,0,19.5,19.5h4.425c-1.07,8.983-4.253,16.233-9.734,21.435-11.754,11.15-30.146,10.279-30.691,10.292h-7.09a19.5,19.5,0,0,0-19.475-19.3H92.4a19.518,19.518,0,0,0-19.488,19.5v6.458A19.513,19.513,0,0,0,92.4,212.625H107.86a19.471,19.471,0,0,0,18.259-12.864l7.92-.007c.14.013.8.047,1.867.047,5.96,0,24.691-1.09,38.259-13.894,8.239-7.754,12.957-18.226,14.146-31.156h4.425a19.524,19.524,0,0,0,19.5-19.5V83.788A19.52,19.52,0,0,0,192.737,64.293Z" transform="translate(-0.032)" fill="#991617"/>
        </g>
      </g>
    </g>
    <g id="Group_9" data-name="Group 9" transform="translate(315.491 1777.785)">
      <ellipse id="Ellipse_14" data-name="Ellipse 14" cx="21.299" cy="21.299" rx="21.299" ry="21.299" transform="translate(8.157 8.157)" fill="#fff"/>
      <g id="noun_Gear_327998" transform="translate(0 0)">
        <g id="Group_6" data-name="Group 6">
          <g id="Group_5" data-name="Group 5">
            <ellipse id="Ellipse_13" data-name="Ellipse 13" cx="8.308" cy="8.314" rx="8.308" ry="8.314" transform="translate(20.695 20.689)" fill="#991617"/>
            <path id="Path_25" data-name="Path 25" d="M29,0a29,29,0,1,0,29,29A29.036,29.036,0,0,0,29,0ZM47.427,31.766l-5.622.563a12.568,12.568,0,0,1-1.443,3.315l3.624,4.433L40.08,43.985l-4.608-3.772a12.557,12.557,0,0,1-3.09,1.144l-.606,6.071H26.23l-.606-6.071a12.53,12.53,0,0,1-3.09-1.144l-4.608,3.772-3.906-3.908,3.624-4.433A12.6,12.6,0,0,1,16.2,32.329l-5.622-.563V26.24l5.63-.564a12.671,12.671,0,0,1,1.437-3.31l-3.627-4.437,3.906-3.908,4.607,3.772a12.6,12.6,0,0,1,3.091-1.144l.606-6.071h5.547l.606,6.071a12.587,12.587,0,0,1,3.091,1.144l4.608-3.772,3.906,3.908L40.36,22.366a12.671,12.671,0,0,1,1.437,3.31l5.63.564v5.527Z" fill="#991617"/>
          </g>
        </g>
      </g>
    </g>
  </g>
</svg>
