<svg xmlns="http://www.w3.org/2000/svg" width="203.345" height="203.308" viewBox="0 0 203.345 203.308">
  <g id="noun_tech_support_1933887" data-name="noun_tech support_1933887" transform="translate(-4.641 -0.942)">
    <g id="Group_31" data-name="Group 31" transform="translate(4.641 0.942)">
      <path id="Path_58" data-name="Path 58" d="M48.341,34.39,32.252,18.3a56.413,56.413,0,0,0-4.234,10.162L6,34.39V58.948l22.017,5.928a73.047,73.047,0,0,0,4.234,10.162L20.819,94.514l17.36,17.36,19.477-11.432a51.8,51.8,0,0,0,10.162,4.234l5.928,22.017H98.3l5.928-22.017a103.42,103.42,0,0,0,10.162-4.234L98.727,84.776C67.818,94.514,38.6,65.3,48.341,34.39Z" transform="translate(15.442 55.197)" fill="#991617"/>
      <path id="Path_59" data-name="Path 59" d="M84.452,98.4l16.09,16.09a56.412,56.412,0,0,0,4.234-10.162L126.793,98.4V73.846l-22.017-5.928h0a73.043,73.043,0,0,0-4.234-10.162l11.432-19.477-17.36-17.36L75.137,32.352a51.8,51.8,0,0,0-10.162-4.234L59.048,6.1H34.49L28.562,28.117A103.421,103.421,0,0,0,18.4,32.352l16.09,16.09C64.975,38.279,94.191,67.495,84.452,98.4Z" transform="translate(55.545 15.741)" fill="#991617"/>
      <path id="Path_60" data-name="Path 60" d="M165.491,151.5,53.71,39.719C65.566,17.278,45.666-6.009,21.955,2.882L37.2,18.125a4.749,4.749,0,0,1-.423,6.775L24.918,36.755c-2.117,2.117-5.081,2.117-6.775.423L2.9,21.936C-5.991,45.647,16.874,65.547,39.738,53.692L151.519,165.473c-11.856,22.441,8.045,45.729,31.756,36.837L168.455,187.49c-1.694-1.694-1.694-4.658.423-6.775l11.856-11.856c2.117-2.117,5.081-2.117,6.775-.423l14.819,14.819C210.8,161.238,190.473,139.644,165.491,151.5Z" transform="translate(-0.936 -0.942)" fill="#991617"/>
    </g>
  </g>
</svg>
