<svg xmlns="http://www.w3.org/2000/svg" width="238" height="187.895" viewBox="0 0 238 187.895">
  <g id="noun_training_1064024" transform="translate(-7.533 -13.9)">
    <path id="Path_31" data-name="Path 31" d="M179.726,36.483H119.906V24.98a5.88,5.88,0,1,0-11.759,0v11.5H48.838A15.383,15.383,0,0,0,33.5,51.822v92.286a15.383,15.383,0,0,0,15.338,15.338h28.12l-9.2,34H79.771l9.2-34h19.684v34h11.5V159.7H139.59l9.2,34h12.015l-9.2-34h28.12a15.383,15.383,0,0,0,15.338-15.338V52.077A15.44,15.44,0,0,0,179.726,36.483Zm7.669,107.88a7.691,7.691,0,0,1-7.669,7.669H48.838a7.691,7.691,0,0,1-7.669-7.669V52.077a7.691,7.691,0,0,1,7.669-7.669H179.726a7.691,7.691,0,0,1,7.669,7.669Z" transform="translate(50.469 8.093)" fill="#991617"/>
    <path id="Path_32" data-name="Path 32" d="M189.961,38.079a2.094,2.094,0,0,0-2.556-1.023l-56.5,26.075A9.988,9.988,0,0,0,125.029,57L94.608,46.77h0L84.382,43.447l-5.624-1.789c-.767-.256-4.09-1.534-8.947-2.812h0L67,38.079a2.57,2.57,0,0,0-2.812,1.278L49.1,80.77a2.756,2.756,0,0,1-5.113,0L28.908,39.357a2.142,2.142,0,0,0-2.045-1.534c-.256,0-7.925,2.3-7.925,2.3A22.256,22.256,0,0,0,3.6,61.342v43.714a2.3,2.3,0,0,0,.256,1.278l15.85,24.03v35.278H73.134V130.364h0V60.319l13.293,4.346h0l9.459,3.068L118.638,75.4a12.832,12.832,0,0,0,3.068.511,9.825,9.825,0,0,0,9.2-6.647,5.629,5.629,0,0,0,.256-2.045l57.774-26.586A1.756,1.756,0,0,0,189.961,38.079Z" transform="translate(3.933 35.896)" fill="#991617"/>
    <path id="Path_33" data-name="Path 33" d="M60.805,38.953A25.053,25.053,0,1,0,35.753,64.005,25.093,25.093,0,0,0,60.805,38.953Zm0,0" transform="translate(14.983 0)" fill="#991617"/>
    <path id="Path_34" data-name="Path 34" d="M30.631,38.523A2.964,2.964,0,0,0,28.074,37.5h-6.9a3.282,3.282,0,0,0-2.556,1.023,3.5,3.5,0,0,0-.511,3.835l3.579,5.624L19.894,62.553,23.217,71.5c.256,1.023,1.534,1.023,2.045,0l3.323-8.947L26.8,47.981l3.579-5.624a2.574,2.574,0,0,0,.256-3.835Zm0,0" transform="translate(25.985 36.731)" fill="#991617"/>
  </g>
</svg>
