<svg xmlns="http://www.w3.org/2000/svg" width="277.307" height="277.301" viewBox="0 0 277.307 277.301">
  <g id="noun_solution_1985543" transform="translate(-19.342 -5.157)">
    <path id="Path_61" data-name="Path 61" d="M62.86,69.632a4.635,4.635,0,0,0,3.429,1.518h0a4.633,4.633,0,0,0,3.429-1.515L89.03,48.413a4.638,4.638,0,0,0-6.861-6.243L70.924,54.532,70.961,9.8a4.642,4.642,0,0,0-4.638-4.641h0a4.637,4.637,0,0,0-4.638,4.635L61.648,54.5,50.434,42.158a4.638,4.638,0,1,0-6.867,6.236Z" transform="translate(92.019 0)" fill="#991617"/>
    <path id="Path_62" data-name="Path 62" d="M109.253,77.727a4.638,4.638,0,0,0-4.415,4.848l.792,16.69L74.023,67.613a4.637,4.637,0,0,0-6.564,6.552l31.6,31.646-16.665-.8a4.637,4.637,0,0,0-.445,9.263l28.659,1.379c.074,0,.148.006.223.006a4.638,4.638,0,0,0,4.635-4.854l-1.354-28.662A4.668,4.668,0,0,0,109.253,77.727Z" transform="translate(141.683 127.804)" fill="#991617"/>
    <path id="Path_63" data-name="Path 63" d="M48.4,88.82,69.635,69.533a4.635,4.635,0,0,0,0-6.861L48.415,43.363a4.638,4.638,0,1,0-6.243,6.861L54.534,61.473,9.8,61.426H9.794A4.638,4.638,0,0,0,9.788,70.7l44.715.04L42.157,81.953A4.639,4.639,0,0,0,48.4,88.82Z" transform="translate(14.187 77.394)" fill="#991617"/>
    <path id="Path_64" data-name="Path 64" d="M69.528,75.019A4.637,4.637,0,0,0,66.1,73.5h0a4.639,4.639,0,0,0-3.429,1.515L43.362,96.236a4.638,4.638,0,1,0,6.861,6.243L61.474,90.111l-.043,44.737a4.637,4.637,0,0,0,4.632,4.641h.006a4.639,4.639,0,0,0,4.638-4.635l.037-44.7,11.211,12.34a4.639,4.639,0,0,0,6.867-6.239Z" transform="translate(91.581 142.969)" fill="#991617"/>
    <path id="Path_65" data-name="Path 65" d="M34.356,27.618l16.653.8a4.637,4.637,0,0,0,.445-9.263L22.793,17.78a4.589,4.589,0,0,0-3.5,1.354,4.642,4.642,0,0,0-1.354,3.5L19.289,51.29a4.643,4.643,0,0,0,4.632,4.418c.071,0,.148,0,.223-.006a4.639,4.639,0,0,0,4.415-4.851l-.792-16.7L59.373,65.819a4.638,4.638,0,0,0,6.567-6.552Z" transform="translate(40.91 26.391)" fill="#991617"/>
    <path id="Path_66" data-name="Path 66" d="M134.86,61.687l-44.706-.043,12.337-11.208a4.638,4.638,0,0,0-6.236-6.867L75.019,62.861a4.638,4.638,0,0,0,0,6.861l21.22,19.3a4.637,4.637,0,1,0,6.243-6.858L90.111,70.916l44.737.043h.006a4.636,4.636,0,0,0,.006-9.273Z" transform="translate(157.158 77.835)" fill="#991617"/>
    <path id="Path_67" data-name="Path 67" d="M59.253,67.46,27.613,99.044l.8-16.653a4.637,4.637,0,1,0-9.263-.439l-1.37,28.659a4.638,4.638,0,0,0,4.635,4.857c.071,0,.145,0,.216-.006l28.656-1.354a4.637,4.637,0,1,0-.433-9.263l-16.7.792L65.814,74.027a4.642,4.642,0,0,0-6.561-6.567Z" transform="translate(40.578 127.497)" fill="#991617"/>
    <path id="Path_68" data-name="Path 68" d="M78.3,32C55.68,32,36.563,50.116,36.563,71.565c0,15.32,7.39,22.327,13.326,27.957,4.669,4.431,7.108,6.96,7.108,11.666V135.58a12.382,12.382,0,0,0,12.368,12.368H86.856a12.379,12.379,0,0,0,12.368-12.361l.031-24.4c0-4.684,2.48-7.213,7.232-11.641,6.038-5.63,13.561-12.64,13.561-27.985C120.044,50.12,100.93,32,78.3,32Zm8.552,106.671H69.365a3.134,3.134,0,0,1-3.092-3.092V124.758h23.69l-.015,10.822A3.134,3.134,0,0,1,86.856,138.672Zm13.3-45.909c-4.774,4.446-10.182,9.489-10.182,18.422l-.006,4.3h-23.7v-4.295c0-8.914-5.315-13.954-10-18.4C50.909,87.7,45.842,82.9,45.842,71.568c0-16.137,15.172-30.288,32.465-30.288s32.465,14.152,32.465,30.288C110.769,82.875,105.614,87.677,100.16,92.763Z" transform="translate(79.887 56.155)" fill="#991617"/>
    <path id="Path_69" data-name="Path 69" d="M70.891,67.293a4.626,4.626,0,0,0,3.277-1.354l31.643-31.587-.8,16.656a4.634,4.634,0,0,0,4.409,4.854c.077,0,.152.006.226.006a4.637,4.637,0,0,0,4.629-4.415l1.376-28.659a4.641,4.641,0,0,0-4.851-4.857L82.136,19.291a4.637,4.637,0,1,0,.433,9.263l16.7-.788L67.613,59.371a4.639,4.639,0,0,0,3.277,7.921Z" transform="translate(141.993 26.722)" fill="#991617"/>
  </g>
</svg>
