<svg id="noun_Architect_7287" xmlns="http://www.w3.org/2000/svg" width="249.603" height="203.6" viewBox="0 0 249.603 203.6">
  <path id="Path_35" data-name="Path 35" d="M82.689,36.3A18.149,18.149,0,1,0,64.535,18.149,18.142,18.142,0,0,0,82.689,36.3Z" transform="translate(96.548 0)" fill="#991617"/>
  <path id="Path_36" data-name="Path 36" d="M133.618,118.374c13.99,1.85,21.918,2.793,27.065,2.793a14.026,14.026,0,0,0,9.21-2.062c.012-.015.025-.015.037-.027h0c6.153-3.849,9.235-12.191,7.021-20.582L159.487,32.567c-2.643-10.009-11.839-16.262-20.533-13.96a15.046,15.046,0,0,0-9.26,7.418L99.864,36.766l-41.1-2.4L42.447,11.049l-5.329,3.732-.592-.849-1.8,1.263,15.663,22.39a10.3,10.3,0,0,0-.786,3.38c-.227,3.926,1.647,7.229,4.188,7.381l4.3.245,6.592,9.423,1.8-1.258-5.591-8h0l4.63,6.617,5.327-3.732-1.68-2.4,31.662,1.842a3.02,3.02,0,0,0,.791.045l.342.025a3.479,3.479,0,0,0,2.366-.864l23.892-8.6,14.015,52.961L116.959,92.76,88.7,90.973c-4.346,0-7.144,2.177-8.686,5.966l-.774,4.867v74.9a10.366,10.366,0,1,0,20.732,0l-.1-62.444Z" transform="translate(51.946 16.53)" fill="#991617"/>
  <path id="Path_37" data-name="Path 37" d="M101.362,60.267h52.774V51.725H42.84V44.434h4.882V38.716H45.281V35.86h2.441V31.769L58.6,46.124l-.806.629.492.632.8-.632.617.821-.579.452.492.622.567-.447L62.8,51.648l4.026-3.055-2.656-3.5.629-.5-.492-.629-.622.489-.617-.811.4-.314-.484-.629-.4.307L41.756,15.54l-4.024,3.05,9.7,12.8H0V35.86H3.8v2.855H7.323v5.718H4.882v7.291H.409v8.541H89.573V168.65H32.983v10.067H124.9V168.65H101.362Z" transform="translate(0 23.249)" fill="#991617"/>
  <path id="Path_38" data-name="Path 38" d="M140.84,91.655h-1.712V60.426l2.693-24.579c.227-2.044-1.775-3.944-4.455-4.233s-5.055,1.126-5.269,3.17L127.4,77.652c-.227,2.037,1.76,3.949,4.453,4.226a5.61,5.61,0,0,0,3.22-.529v10.3H73.98a4.365,4.365,0,0,0,0,8.669h29.064v40.286L82.5,142.594l.24,2.444h-.127a4.9,4.9,0,1,0,3.976,2.062l16.459-1.585v9.208h6.5v-9.308l17.652,1.7a4.885,4.885,0,1,0,4-2.074,1.626,1.626,0,0,0-.24.012l.24-2.454-21.653-2.087V100.323h31.29a4.365,4.365,0,0,0,0-8.669Z" transform="translate(104.916 47.238)" fill="#991617"/>
</svg>
