<svg xmlns="http://www.w3.org/2000/svg" width="232.963" height="232.963" viewBox="0 0 232.963 232.963">
  <g id="noun_content_1115601_1_" data-name="noun_content_1115601 (1)" transform="translate(-43.707 -91)">
    <g id="Group_30" data-name="Group 30" transform="translate(43.707 91)">
      <g id="Group_11" data-name="Group 11" transform="translate(33.969 33.967)">
        <path id="Path_43" data-name="Path 43" d="M91.511,174.021a84.54,84.54,0,0,1-8.6-.45c-.464-.052-.915-.123-1.36-.2l-.626-.1c-2.157-.28-4.308-.583-6.408-1.024-.436-.09-.825-.2-1.213-.3l-.583-.152c-2.142-.5-4.28-1.043-6.365-1.711-.3-.095-.611-.213-.919-.332-2.578-.886-4.782-1.7-6.915-2.635l-.578-.275c-2.531-1.142-4.792-2.28-6.877-3.455a83.712,83.712,0,0,1-19.371-15.148,82.508,82.508,0,1,1,119.638,0h0a82.885,82.885,0,0,1-19.091,14.977c-2.389,1.356-4.583,2.46-7,3.55l-.739.346c-2.138.943-4.342,1.754-6.569,2.512-.659.246-.972.365-1.284.465-2.071.664-4.209,1.2-6.361,1.706l-.573.152c-.389.1-.777.213-1.175.3-2.138.446-4.289.749-6.451,1.029l-.621.1c-.446.076-.9.147-1.351.194A83.517,83.517,0,0,1,91.511,174.021Zm0-155.316A72.727,72.727,0,0,0,38.736,141.555a73.006,73.006,0,0,0,16.849,13.224c2.171,1.237,4.152,2.223,6.18,3.133.057.028.441.213.5.237,2.038.9,3.977,1.616,5.939,2.28l.711.265c2.247.739,4.128,1.2,6.024,1.649l1.6.412c1.815.379,3.721.645,5.626.886l1.754.275a72.1,72.1,0,0,0,15.2,0l1.739-.27c1.91-.242,3.815-.507,5.669-.891l1.55-.408c1.905-.446,3.787-.91,5.626-1.5l1.109-.408c1.972-.668,3.91-1.384,5.8-2.209l.692-.327c1.981-.9,3.967-1.882,5.891-2.967a73.839,73.839,0,0,0,17.1-13.375L147.8,144.9l-3.517-3.341A72.8,72.8,0,0,0,91.511,18.705Z" transform="translate(-8.999 -8.999)" fill="#991617"/>
      </g>
      <g id="Group_12" data-name="Group 12" transform="translate(33.969 58.238)">
        <path id="Path_44" data-name="Path 44" d="M91.511,154.75A82.436,82.436,0,0,1,31.692,15.511,4.864,4.864,0,0,1,35.214,14h0a4.849,4.849,0,0,1,3.522,1.514A72.106,72.106,0,0,0,91.511,38.269a72.115,72.115,0,0,0,52.776-22.757A4.856,4.856,0,0,1,147.809,14h0a4.849,4.849,0,0,1,3.522,1.514A82.438,82.438,0,0,1,91.511,154.75ZM35.437,25.908a72.8,72.8,0,1,0,112.145,0,81.584,81.584,0,0,1-56.07,22.068A81.587,81.587,0,0,1,35.437,25.908Z" transform="translate(-8.999 -14)" fill="#991617"/>
      </g>
      <g id="Group_13" data-name="Group 13" transform="translate(55.329 33.967)">
        <path id="Path_45" data-name="Path 45" d="M74.552,67.246A81.723,81.723,0,0,1,14.733,41.463a4.849,4.849,0,0,1,0-6.678,82.28,82.28,0,0,1,119.638,0,4.854,4.854,0,0,1,0,6.683A81.746,81.746,0,0,1,74.552,67.246ZM25.146,38.124A71.988,71.988,0,0,0,74.552,57.54a71.985,71.985,0,0,0,49.4-19.416,72.555,72.555,0,0,0-98.807,0Z" transform="translate(-13.4 -8.999)" fill="#991617"/>
      </g>
      <g id="Group_14" data-name="Group 14" transform="translate(55.329 140.739)">
        <path id="Path_46" data-name="Path 46" d="M74.552,89.248A81.739,81.739,0,0,1,14.733,63.465a4.854,4.854,0,0,1,0-6.683,82.283,82.283,0,0,1,119.638,0,4.854,4.854,0,0,1,0,6.683A81.755,81.755,0,0,1,74.552,89.248ZM25.146,60.123a72.555,72.555,0,0,0,98.807,0,72.555,72.555,0,0,0-98.807,0Z" transform="translate(-13.4 -30.998)" fill="#991617"/>
      </g>
      <g id="Group_15" data-name="Group 15" transform="translate(72.801 33.967)">
        <path id="Path_47" data-name="Path 47" d="M60.681,174.021a24.886,24.886,0,0,1-5.034-.526,9.42,9.42,0,0,1-1.114-.318,28.217,28.217,0,0,1-3.725-1.2c-.36-.156-.649-.308-.938-.464a31.679,31.679,0,0,1-3.654-1.976c-.109-.066-.545-.379-.645-.455a36.783,36.783,0,0,1-3.612-2.763c-.076-.066-.341-.318-.412-.389a44.7,44.7,0,0,1-3.531-3.555,66.112,66.112,0,0,1-9.868-15.4C20.958,131.819,17,112.121,17,91.509S20.958,51.2,28.148,36.043C36.418,18.6,47.974,9,60.681,9s24.262,9.6,32.528,27.047c7.19,15.16,11.152,34.858,11.152,55.463s-3.962,40.306-11.152,55.468A65.772,65.772,0,0,1,83.492,162.2a44.829,44.829,0,0,1-3.7,3.744l-.389.37a35.218,35.218,0,0,1-3.564,2.725c-.265.209-.483.365-.7.5a30.037,30.037,0,0,1-3.569,1.924c-.374.2-.664.355-.962.488a27.338,27.338,0,0,1-3.74,1.2,8.772,8.772,0,0,1-1.152.332A24.676,24.676,0,0,1,60.681,174.021Zm0-155.316c-8.621,0-17.281,7.837-23.765,21.5-6.583,13.88-10.209,32.1-10.209,51.3s3.626,37.424,10.209,51.307a55.97,55.97,0,0,0,8.247,12.977,34.212,34.212,0,0,0,2.9,2.939c.043.038.327.313.37.351a26.685,26.685,0,0,0,2.54,1.929c.076.047.417.3.488.355a18.748,18.748,0,0,0,2.441,1.3c.095.047.559.289.654.341a15.546,15.546,0,0,0,2.351.744c.123.033.654.2.777.237a14.3,14.3,0,0,0,6.067,0c.118-.038.583-.2.706-.232a17.17,17.17,0,0,0,2.36-.735c.085-.047.531-.294.621-.337a20.315,20.315,0,0,0,2.455-1.308L70.4,161A26.426,26.426,0,0,0,73,159.02a41.058,41.058,0,0,0,3.086-3.09,56.524,56.524,0,0,0,8.356-13.115c6.588-13.887,10.214-32.109,10.214-51.307S91.029,54.092,84.44,40.2v0C77.961,26.54,69.3,18.705,60.681,18.705Z" transform="translate(-17 -8.999)" fill="#991617"/>
      </g>
      <g id="Group_16" data-name="Group 16" transform="translate(111.628 33.967)">
        <path id="Path_48" data-name="Path 48" d="M29.853,174.016A4.851,4.851,0,0,1,25,169.163V13.852a4.853,4.853,0,1,1,9.707,0V169.163A4.851,4.851,0,0,1,29.853,174.016Z" transform="translate(-25 -8.999)" fill="#991617"/>
      </g>
      <g id="Group_17" data-name="Group 17" transform="translate(33.969 111.623)">
        <path id="Path_49" data-name="Path 49" d="M169.166,34.706H13.852a4.853,4.853,0,1,1,0-9.707H169.166a4.853,4.853,0,1,1,0,9.707Z" transform="translate(-8.999 -24.999)" fill="#991617"/>
      </g>
      <g id="Group_20" data-name="Group 20" transform="translate(184.429)">
        <g id="Group_18" data-name="Group 18" transform="translate(0 4.851)">
          <path id="Path_50" data-name="Path 50" d="M44.853,46.68A4.853,4.853,0,0,1,41.422,38.4L75.4,4.421a4.853,4.853,0,0,1,6.863,6.863L48.285,45.258A4.838,4.838,0,0,1,44.853,46.68Z" transform="translate(-40 -3)" fill="#991617"/>
        </g>
        <g id="Group_19" data-name="Group 19" transform="translate(19.414)">
          <path id="Path_51" data-name="Path 51" d="M68.267,31.118a4.852,4.852,0,0,1-4.853-4.853V11.707H48.853a4.853,4.853,0,1,1,0-9.707H68.267A4.852,4.852,0,0,1,73.12,6.853V26.265A4.852,4.852,0,0,1,68.267,31.118Z" transform="translate(-44 -2)" fill="#991617"/>
        </g>
      </g>
      <g id="Group_23" data-name="Group 23">
        <g id="Group_21" data-name="Group 21" transform="translate(4.853 4.851)">
          <path id="Path_52" data-name="Path 52" d="M41.827,46.68A4.838,4.838,0,0,1,38.4,45.258L4.422,11.284a4.853,4.853,0,0,1,6.863-6.863L45.259,38.4a4.853,4.853,0,0,1-3.432,8.285Z" transform="translate(-3 -3)" fill="#991617"/>
        </g>
        <g id="Group_22" data-name="Group 22">
          <path id="Path_53" data-name="Path 53" d="M6.853,31.118A4.852,4.852,0,0,1,2,26.265V6.853A4.852,4.852,0,0,1,6.853,2H26.267a4.853,4.853,0,0,1,0,9.707H11.707V26.265A4.852,4.852,0,0,1,6.853,31.118Z" transform="translate(-2 -2)" fill="#991617"/>
        </g>
      </g>
      <g id="Group_26" data-name="Group 26" transform="translate(184.429 184.429)">
        <g id="Group_24" data-name="Group 24">
          <path id="Path_54" data-name="Path 54" d="M78.827,83.681A4.838,4.838,0,0,1,75.4,82.259L41.422,48.285a4.853,4.853,0,0,1,6.863-6.863L82.259,75.4a4.853,4.853,0,0,1-3.432,8.285Z" transform="translate(-40 -40)" fill="#991617"/>
        </g>
        <g id="Group_25" data-name="Group 25" transform="translate(19.414 19.414)">
          <path id="Path_55" data-name="Path 55" d="M68.267,73.12H48.853a4.853,4.853,0,1,1,0-9.707h14.56V48.853a4.853,4.853,0,1,1,9.707,0V68.267A4.851,4.851,0,0,1,68.267,73.12Z" transform="translate(-44 -44)" fill="#991617"/>
        </g>
      </g>
      <g id="Group_29" data-name="Group 29" transform="translate(0 184.429)">
        <g id="Group_27" data-name="Group 27" transform="translate(4.853)">
          <path id="Path_56" data-name="Path 56" d="M7.853,83.681A4.853,4.853,0,0,1,4.422,75.4L38.4,41.422a4.853,4.853,0,0,1,6.863,6.863L11.285,82.259A4.838,4.838,0,0,1,7.853,83.681Z" transform="translate(-3 -40)" fill="#991617"/>
        </g>
        <g id="Group_28" data-name="Group 28" transform="translate(0 19.414)">
          <path id="Path_57" data-name="Path 57" d="M26.267,73.12H6.853A4.851,4.851,0,0,1,2,68.267V48.853a4.853,4.853,0,1,1,9.707,0v14.56h14.56a4.853,4.853,0,0,1,0,9.707Z" transform="translate(-2 -44)" fill="#991617"/>
        </g>
      </g>
    </g>
  </g>
</svg>
