<svg xmlns="http://www.w3.org/2000/svg" width="243.032" height="223.581" viewBox="0 0 243.032 223.581">
  <g id="noun_User_PC_328010" data-name="noun_User PC_328010" transform="translate(0 -2.562)">
    <g id="Group_1" data-name="Group 1" transform="translate(0 2.562)">
      <path id="Path_19" data-name="Path 19" d="M51.99,62.966A27.134,27.134,0,1,0,24.854,35.834,27.166,27.166,0,0,0,51.99,62.966Z" transform="translate(69.526 14.603)" fill="#991617"/>
      <path id="Path_20" data-name="Path 20" d="M93.35,24.024l-2.464-.034L69.647,70.033,48.408,23.99l-2.464.034c-9.474.125-27.4,5.7-27.4,25.871V80.5H120.756V49.9C120.752,29.72,102.825,24.149,93.35,24.024Z" transform="translate(51.869 57.38)" fill="#991617"/>
      <path id="Path_21" data-name="Path 21" d="M28.24,24.223,42.518,55.832,56.8,24.223H28.24Z" transform="translate(78.998 58.032)" fill="#991617"/>
      <path id="Path_22" data-name="Path 22" d="M234.43,2.562H8.6a8.613,8.613,0,0,0-8.6,8.6V179.147a8.613,8.613,0,0,0,8.6,8.6h79.7l-3.721,26H67.267v12.395h108.5V213.749h-17.32l-3.721-26H234.43a8.61,8.61,0,0,0,8.6-8.6V11.159A8.61,8.61,0,0,0,234.43,2.562Zm1.006,153.585H7.595V11.159a1.021,1.021,0,0,1,1.01-1H234.434a1.016,1.016,0,0,1,1,1Z" transform="translate(0 -2.562)" fill="#991617"/>
    </g>
  </g>
</svg>
